<svg id="Layer_1" data-name="Layer 1" xmlns="http://www.w3.org/2000/svg" viewBox="0 0 176.49 189.27"><defs><style>.cls-1{fill:#fff;}</style></defs><polygon class="cls-1" points="176.49 66.59 142.56 66.59 123.7 0 108.34 4.35 125.96 66.59 53.26 66.59 70.84 4.47 55.48 0.12 36.66 66.59 0 66.59 0 88.83 176.49 88.83 176.49 66.59"/><path class="cls-1" d="M331.22,111.05h-159l16.89,91.85H315.91ZM201.89,187.67l-9.2-61.34,16.93,0,4.87,61.29Zm35.12,0h-15.5l-2.36-61.35H237Zm23.06,0h-15.5V126.33h15.5Zm23,0h-15.5V126.33h17.85Zm19.62,0H290.1L295,126.38l16.93,0Z" transform="translate(-163.5 -13.63)"/></svg>