<svg width="177" height="190" viewBox="0 0 177 190" fill="none" xmlns="http://www.w3.org/2000/svg">
<g clip-path="url(#clip0_103_2)">
<path d="M176.49 66.59H142.56L123.7 0L108.34 4.35L125.96 66.59H53.26L70.84 4.47L55.48 0.12L36.66 66.59H0V88.83H176.49V66.59Z" fill="#5C5C5C"/>
<path d="M167.72 97.4199H8.71997L25.61 189.27H152.41L167.72 97.4199ZM38.39 174.04L29.19 112.7H46.12L50.99 173.99L38.39 174.04ZM73.51 174.04H58.01L55.65 112.69H73.5L73.51 174.04ZM96.57 174.04H81.07V112.7H96.57V174.04ZM119.57 174.04H104.07V112.7H121.92L119.57 174.04ZM139.19 174.04H126.6L131.5 112.75H148.43L139.19 174.04Z" fill="#5C5C5C"/>
</g>
<defs>
<clipPath id="clip0_103_2">
<rect width="176.49" height="189.27" fill="white"/>
</clipPath>
</defs>
</svg>
