<svg id="Layer_1" data-name="Layer 1" xmlns="http://www.w3.org/2000/svg" viewBox="0 0 263.67 153.81"><defs><style>.cls-1{fill:#e62c32;}.cls-2{fill:#fff;}</style></defs><rect class="cls-1" width="62.03" height="153.81"/><rect class="cls-1" x="201.64" width="62.03" height="153.81"/><rect class="cls-2" x="62.03" width="139.64" height="153.81"/><path class="cls-1" d="M251.77,50l-9.15,17.77c-1,1.93-2.89,1.73-4.76.67l-6.63-3.59,4.94,27.32c1.05,5-2.29,5-3.93,2.83L220.69,81.52l-1.89,6.83A2.22,2.22,0,0,1,216.21,90L201.6,86.75l3.84,14.54c.84,3.25,1.46,4.59-.83,5.44l-5.21,2.55,25.17,21.29a3.5,3.5,0,0,1,1.13,3.56l-2.2,7.54,25.07-3c.77,0,2.06.69,2.05,1.61l-1.15,27.57h4.22L253,140.3c0-.9,1.16-1.67,1.91-1.67l25.1,3-2.22-7.54a3.57,3.57,0,0,1,1.15-3.56l25.16-21.29-5.21-2.55c-2.29-.85-1.65-2.19-.83-5.44l3.85-14.54L287.31,90a2.23,2.23,0,0,1-2.59-1.62l-1.87-6.83L271.28,95c-1.64,2.16-5,2.16-3.92-2.83l4.92-27.32-6.61,3.59c-1.87,1.06-3.73,1.26-4.75-.67Z" transform="translate(-119.91 -31.36)"/></svg>