<svg id="Layer_1" data-name="Layer 1" xmlns="http://www.w3.org/2000/svg" viewBox="0 0 447.45 134.33"><defs><style>.cls-1{fill:#1d1d1b;}.cls-2{fill:#e7411b;}</style></defs><path class="cls-1" d="M74.34,125a24.12,24.12,0,0,1-8.21-7.38L54.61,102.51V126H39V62.43c0-4.08-.56-7.09-1.68-9.06S34,50.44,30.61,50.44h-1.2v-3.6h14.4a12.43,12.43,0,0,1,6.6,1.44A7.94,7.94,0,0,1,53.65,53a35.6,35.6,0,0,1,1,9.42v34.2L69.13,78.87a31.67,31.67,0,0,1,7.67-7.08q3.6-2.16,9.6-2.16h2.4v3.12a14.29,14.29,0,0,0-6.48,1.44,17.82,17.82,0,0,0-5.52,4.56L65.17,92.91l16,21.11q5.76,7.8,11.16,9.12V126a12.94,12.94,0,0,1-3.54.84,34.5,34.5,0,0,1-4.74.36A21.06,21.06,0,0,1,74.34,125Z" transform="translate(-29.41 -46.84)"/><path class="cls-1" d="M103.86,123.32a26.24,26.24,0,0,1-10-10.56,33.79,33.79,0,0,1,0-29.87,26.24,26.24,0,0,1,10-10.56,29.31,29.31,0,0,1,15.3-3.9,29.29,29.29,0,0,1,15.29,3.9,26.24,26.24,0,0,1,10,10.56,33.79,33.79,0,0,1,0,29.87,26.24,26.24,0,0,1-10,10.56,29.29,29.29,0,0,1-15.29,3.9A29.31,29.31,0,0,1,103.86,123.32Zm24.65-8.1q3.24-6.59,3.24-17.39t-3.24-17.4q-3.22-6.6-9.35-6.6t-9.36,6.6q-3.24,6.6-3.24,17.4t3.24,17.39q3.24,6.6,9.36,6.6T128.51,115.22Z" transform="translate(-29.41 -46.84)"/><path class="cls-1" d="M160.85,119q-6.54-8.2-6.54-21.17T161,76.65q6.66-8.22,19.13-8.22a27,27,0,0,1,9.24,1.8A33.17,33.17,0,0,1,192.7,72v-9.6c0-4.08-.56-7.09-1.68-9.06s-3.36-2.93-6.72-2.93h-1.2v-3.6h14.4a12.43,12.43,0,0,1,6.6,1.44A7.94,7.94,0,0,1,207.34,53a35.6,35.6,0,0,1,1,9.42V126H198.1l-4.2-5.4h-.6a13.31,13.31,0,0,1-3.36,3.36,16.27,16.27,0,0,1-10.44,3.24Q167.38,127.22,160.85,119Zm29.09-1a17.58,17.58,0,0,0,2.76-4V77.43a16.2,16.2,0,0,0-2.88-1.8,17.26,17.26,0,0,0-7.32-1.8q-12,0-12,24,0,11.16,2.7,17.57t8.69,6.42A10.83,10.83,0,0,0,189.94,118Z" transform="translate(-29.41 -46.84)"/><path class="cls-1" d="M230.61,123.38a26,26,0,0,1-9.65-10.5,32.45,32.45,0,0,1-3.42-15,34.33,34.33,0,0,1,3.42-16,23.78,23.78,0,0,1,9.41-10,26.89,26.89,0,0,1,13.56-3.42,29.63,29.63,0,0,1,13.44,3,23.41,23.41,0,0,1,9.48,8.46,22.82,22.82,0,0,1,3.48,12.54q0,2.28-.24,5.16l-.24,2.4H233.73q0,11.4,3.48,16.61a11,11,0,0,0,9.72,5.22,17.14,17.14,0,0,0,9.66-2.58,31,31,0,0,0,7.5-7.38l3.72,2.76a31.62,31.62,0,0,1-8.7,9q-5.22,3.6-14,3.6A27.14,27.14,0,0,1,230.61,123.38Zm23.52-28.79q0-11.28-2.64-16t-7.56-4.74q-4.56,0-7.38,4.86t-2.82,15.9Z" transform="translate(-29.41 -46.84)"/><path class="cls-1" d="M279.44,62.43c0-4.08-.56-7.09-1.68-9.06s-3.36-2.93-6.71-2.93h-1.2v-3.6h14.39a12.43,12.43,0,0,1,6.6,1.44A7.94,7.94,0,0,1,294.08,53a35.6,35.6,0,0,1,1,9.42V126h-15.6Z" transform="translate(-29.41 -46.84)"/><path class="cls-1" d="M309.8,85.23q0-6.12-1.68-9.06t-6.72-2.94h-1.2v-3.6h14.4a12.43,12.43,0,0,1,6.6,1.44,8,8,0,0,1,3.23,4.74,35.55,35.55,0,0,1,1,9.42V126H309.8Zm1.14-24.72A9.38,9.38,0,0,1,308.6,54a6.29,6.29,0,0,1,6.6-6.71A8.43,8.43,0,0,1,321.86,50a9.45,9.45,0,0,1,2.33,6.47,6.27,6.27,0,0,1-6.59,6.72A8.43,8.43,0,0,1,310.94,60.51Z" transform="translate(-29.41 -46.84)"/><path class="cls-1" d="M339.55,85.23q0-6.12-1.62-9.06t-6.66-2.94h-1.2v-3.6H342a16.43,16.43,0,0,1,6.42,1A7.57,7.57,0,0,1,352,74.07q6.12-5.64,17.52-5.64t17.09,5.34q5.7,5.34,5.7,16.74V126h-15.6V90.39q0-8.28-3.05-12.12a10.09,10.09,0,0,0-8.34-3.84,19.19,19.19,0,0,0-6.54,1,12,12,0,0,0-4.5,2.7l.36,1.68a16.25,16.25,0,0,1,.48,4.68V126h-15.6Z" transform="translate(-29.41 -46.84)"/><path class="cls-1" d="M414.06,123.38a26,26,0,0,1-9.66-10.5,32.45,32.45,0,0,1-3.42-15,34.33,34.33,0,0,1,3.42-16,23.8,23.8,0,0,1,9.42-10,26.89,26.89,0,0,1,13.56-3.42,29.62,29.62,0,0,1,13.43,3,23.41,23.41,0,0,1,9.48,8.46,22.82,22.82,0,0,1,3.48,12.54q0,2.28-.24,5.16l-.24,2.4H417.18q0,11.4,3.48,16.61a11,11,0,0,0,9.71,5.22,17.14,17.14,0,0,0,9.66-2.58,31,31,0,0,0,7.5-7.38l3.72,2.76a31.62,31.62,0,0,1-8.7,9q-5.22,3.6-14,3.6A27.14,27.14,0,0,1,414.06,123.38Zm23.51-28.79q0-11.28-2.64-16t-7.55-4.74c-3.05,0-5.5,1.62-7.38,4.86s-2.82,8.54-2.82,15.9Z" transform="translate(-29.41 -46.84)"/><path class="cls-1" d="M335.28,179.88a14,14,0,0,1-4.78-4.29l-6.7-8.8v13.68h-9.08v-37a10.85,10.85,0,0,0-1-5.27q-1-1.71-3.9-1.71h-.7v-2.1h8.37a7.2,7.2,0,0,1,3.84.84,4.64,4.64,0,0,1,1.89,2.76,20.73,20.73,0,0,1,.56,5.48v19.89L332.24,153a18.45,18.45,0,0,1,4.47-4.12,10.75,10.75,0,0,1,5.58-1.25h1.4v1.81a8.29,8.29,0,0,0-3.77.84,10.29,10.29,0,0,0-3.21,2.65l-6.77,8.24,9.28,12.28q3.36,4.55,6.49,5.31v1.67a7.38,7.38,0,0,1-2.06.49,20,20,0,0,1-2.75.21A12.26,12.26,0,0,1,335.28,179.88Z" transform="translate(-29.41 -46.84)"/><path class="cls-1" d="M349.9,156.74a11,11,0,0,0-1-5.27c-.65-1.14-1.95-1.71-3.91-1.71h-.69v-2.09h8.37a7.3,7.3,0,0,1,3.84.83,4.69,4.69,0,0,1,1.89,2.76,20.86,20.86,0,0,1,.55,5.48v23.73H349.9Zm.66-14.38a5.51,5.51,0,0,1-1.36-3.77,3.66,3.66,0,0,1,3.84-3.91,4.93,4.93,0,0,1,3.88,1.54,5.51,5.51,0,0,1,1.36,3.77,3.67,3.67,0,0,1-3.84,3.91A4.9,4.9,0,0,1,350.56,142.36Z" transform="translate(-29.41 -46.84)"/><path class="cls-1" d="M368,176.39q-3.79-4.78-3.8-12.32t3.87-12.32Q372,147,379.22,147a15.86,15.86,0,0,1,5.37,1,21.2,21.2,0,0,1,2,1.05v-5.58a11,11,0,0,0-1-5.27c-.65-1.14-2-1.71-3.91-1.71H381v-2.1h8.38a7.25,7.25,0,0,1,3.84.84,4.63,4.63,0,0,1,1.88,2.76,20.73,20.73,0,0,1,.56,5.48v37h-5.93l-2.45-3.14h-.35a7.81,7.81,0,0,1-1.95,2,9.5,9.5,0,0,1-6.07,1.88Q371.82,181.17,368,176.39Zm16.93-.59a10.44,10.44,0,0,0,1.61-2.31V152.2a9.48,9.48,0,0,0-1.68-1,10,10,0,0,0-4.26-1q-7,0-7,14a27.08,27.08,0,0,0,1.57,10.22q1.57,3.74,5.06,3.74A6.34,6.34,0,0,0,384.94,175.8Z" transform="translate(-29.41 -46.84)"/><path class="cls-1" d="M403.16,178.31a4.89,4.89,0,0,1-1.4-3,38.66,38.66,0,0,1-.28-5.34h2.44a10.44,10.44,0,0,0,2.87,5.83A8.46,8.46,0,0,0,413,178q7,0,7-4.75a3.67,3.67,0,0,0-1.5-3,24,24,0,0,0-4.78-2.65l-3.63-1.54a21.09,21.09,0,0,1-6.7-4.25,8.16,8.16,0,0,1,1.43-12.43,17,17,0,0,1,9.59-2.44q8.17,0,11.24,2.86a4.83,4.83,0,0,1,1.4,2.93,40.25,40.25,0,0,1,.28,5.38h-2.45a10.34,10.34,0,0,0-2.86-5.83,8.46,8.46,0,0,0-6.21-2.2,6.63,6.63,0,0,0-4.47,1.29,4.39,4.39,0,0,0-1.46,3.46,3.79,3.79,0,0,0,1.22,2.89,13.33,13.33,0,0,0,3.73,2.27l4.19,1.75a24.56,24.56,0,0,1,7.44,4.36,8.17,8.17,0,0,1-1.68,12.63q-3.94,2.42-10.37,2.41Q406.23,181.17,403.16,178.31Z" transform="translate(-29.41 -46.84)"/><circle class="cls-2" cx="437.83" cy="70.76" r="9.62"/></svg>