<svg width="252" height="72" viewBox="0 0 252 72" fill="none" xmlns="http://www.w3.org/2000/svg">
<path d="M20.4 19.5504V38.6204C20.4 39.4304 20.23 40.2204 19.9 40.9704L20.4 40.1704L25.48 31.5204C26.57 29.7004 27.76 28.7504 29.05 28.6604C29.95 28.6004 30.51 29.0004 30.73 29.8404C31.07 31.1004 30.35 32.5604 28.59 34.2104C28.56 34.2704 28.52 34.3204 28.46 34.3804C27.68 35.0804 26.81 35.8504 25.86 36.6904L30.73 43.5404C32.21 45.5004 33.49 46.4804 34.55 46.4804V46.8204H25.35V46.4804C26.11 46.4804 26.52 46.2804 26.59 45.8904C26.66 45.5004 26.49 45.0104 26.07 44.4204L23.38 40.5604C22.65 39.4404 22.97 38.3304 24.35 37.2404C25.16 36.6004 26.02 35.8404 26.91 34.9704C28.14 33.8204 28.58 32.7904 28.21 31.8604C27.96 31.2404 27.51 31.0304 26.87 31.2304C26.37 31.3704 25.93 31.7804 25.57 32.4504L20.4 41.3504V41.6404C20.4 42.2804 20.43 42.8404 20.48 43.3204C20.54 43.8004 20.64 44.3004 20.79 44.8304C20.94 45.3604 21.19 45.7704 21.52 46.0504C21.86 46.3304 22.28 46.4704 22.78 46.4704V46.8104H12.67V46.4704C14.21 46.4704 15.02 44.8504 15.11 41.6004V22.7804C15.05 19.4204 14.24 17.7404 12.67 17.7404V17.4004H18.38C19.02 17.4004 19.52 17.6004 19.87 18.0104C20.22 18.4204 20.4 18.9304 20.4 19.5504Z" fill="white"/>
<path d="M36.21 31.4102C38.02 29.6002 40.19 28.7002 42.74 28.7002C45.29 28.7002 47.46 29.6002 49.25 31.4102C51.04 33.2202 51.94 35.3902 51.94 37.9402C51.94 40.4902 51.04 42.6602 49.25 44.4502C47.46 46.2402 45.29 47.1402 42.74 47.1402C40.19 47.1402 38.01 46.2402 36.21 44.4502C34.4 42.6602 33.5 40.4902 33.5 37.9402C33.5 35.3902 34.4 33.2202 36.21 31.4102ZM42.74 29.5902C41.73 29.5902 40.88 30.1602 40.18 31.3102C39.48 32.4602 39.05 33.8502 38.9 35.4902C38.75 37.1302 38.75 38.7602 38.9 40.3802C39.05 42.0002 39.48 43.3902 40.18 44.5402C40.88 45.6902 41.73 46.2602 42.74 46.2602C43.55 46.2602 44.27 45.8502 44.88 45.0202C45.5 44.1902 45.94 43.1702 46.2 41.9302C46.47 40.7002 46.6 39.3602 46.6 37.9202C46.6 36.4802 46.47 35.1402 46.2 33.9102C45.93 32.6802 45.49 31.6502 44.88 30.8202C44.27 30.0002 43.55 29.5902 42.74 29.5902Z" fill="white"/>
<path d="M67.69 41.4301C67.63 41.9901 67.44 42.6501 67.1 43.4001V43.3201C66.68 44.4701 66.08 45.4001 65.31 46.1101C64.54 46.8201 63.61 47.1801 62.52 47.1801C60.98 47.1801 59.6 46.8601 58.38 46.2101C57.16 45.5601 56.21 44.7301 55.52 43.7101C54.83 42.6901 54.34 41.5501 54.03 40.3101C53.72 39.0601 53.62 37.8001 53.74 36.5101C53.99 34.3001 54.82 32.4401 56.24 30.9401C57.65 29.4401 59.52 28.6901 61.85 28.6901C64.26 28.6901 66.01 29.9501 67.1 32.4701V26.4601C67.04 23.1301 66.25 21.4601 64.71 21.4601V21.1201H70.42C71.06 21.1201 71.55 21.3201 71.89 21.7301C72.23 22.1401 72.39 22.6501 72.39 23.2601V41.4101C72.45 44.7701 73.26 46.4501 74.83 46.4501V46.7901H69.12C68.31 46.7901 67.76 46.5701 67.48 46.1401C67.2 45.7101 67.12 45.2201 67.23 44.6901C67.34 44.1601 67.47 43.5601 67.61 42.8801C67.75 42.2301 67.78 41.7401 67.69 41.4301ZM67.1 38.4101V37.1901C67.02 35.2601 66.6 33.5401 65.84 32.0201C65.08 30.5101 64.24 29.7501 63.32 29.7501C61.95 29.7501 60.88 30.4801 60.11 31.9601C59.34 33.4301 58.93 35.2201 58.87 37.3201C58.81 39.4801 59.12 41.3901 59.79 43.0701C60.46 44.7501 61.37 45.5901 62.52 45.5901C63.36 45.5901 64.09 45.3701 64.7 44.9201C65.32 44.4701 65.78 43.8601 66.11 43.0901C66.43 42.3201 66.67 41.5601 66.82 40.8001C66.99 40.0501 67.08 39.2501 67.1 38.4101Z" fill="white"/>
<path d="M84.49 28.71C86.59 28.71 88.47 29.35 90.12 30.64C91.77 31.93 92.86 33.57 93.4 35.55L92.1 35.8L90.13 36.18L88.32 36.52L80.51 37.99C80.43 43.31 81.9 45.97 84.92 45.97C86.68 45.97 88.18 45.58 89.41 44.79C90.64 44.01 91.5 43.14 91.97 42.19C92.05 42.05 92.16 41.98 92.28 41.98C92.41 41.98 92.49 42.04 92.53 42.15C92.57 42.26 92.55 42.39 92.47 42.53C91.66 43.93 90.54 45.05 89.13 45.89C87.72 46.73 86.17 47.15 84.49 47.15C81.94 47.15 79.76 46.25 77.96 44.46C76.15 42.67 75.25 40.5 75.25 37.95C75.25 35.4 76.15 33.22 77.96 31.42C79.77 29.61 81.95 28.71 84.49 28.71ZM79.12 37.32L88.24 35.6C88.02 33.86 87.58 32.43 86.94 31.29C86.3 30.16 85.48 29.59 84.5 29.59C83.44 29.59 82.57 30.17 81.92 31.33C81.26 32.49 80.83 33.97 80.64 35.76C80.58 36.1 80.42 36.4 80.14 36.68C79.85 36.97 79.51 37.18 79.12 37.32Z" fill="white"/>
<path d="M100.79 21.19V41.27C100.82 41.94 100.86 42.53 100.92 43.03C100.98 43.53 101.08 44.06 101.23 44.6C101.38 45.15 101.63 45.57 101.97 45.86C102.31 46.15 102.73 46.3 103.23 46.3V46.64H93.11V46.3C94.68 46.3 95.48 44.62 95.5 41.26V24.67C95.5 23.44 96.21 22.56 97.64 22.02C97.05 22.19 96.48 22.33 95.92 22.44L95.5 22.57C94.69 22.74 93.99 22.85 93.4 22.91C91.8 23.05 90.7 22.62 90.08 21.61C89.83 21.25 89.7 20.84 89.7 20.39C89.7 19.94 89.8 19.51 89.99 19.09C90.24 18.53 90.64 18.08 91.19 17.75C91.74 17.41 92.37 17.25 93.1 17.25H98.81C99.45 17.25 99.94 17.45 100.28 17.86C100.62 18.27 100.78 18.78 100.78 19.39V20.57C101.87 20.29 102.85 20.09 103.72 19.96C104.59 19.83 105.51 19.79 106.49 19.81C107.47 19.84 108.35 20.04 109.12 20.42C109.89 20.8 110.5 21.36 110.95 22.12C111.45 22.93 111.71 23.79 111.71 24.68C111.71 25.41 111.45 26.03 110.93 26.55C110.41 27.07 109.78 27.33 109.04 27.33C108.3 27.33 107.67 27.07 107.15 26.55C106.63 26.03 106.37 25.41 106.37 24.68C106.37 23.95 106.63 23.33 107.15 22.81C107.67 22.29 108.3 22.03 109.06 22.03C109.54 22.03 109.97 22.14 110.36 22.37C109.91 21.73 109.32 21.24 108.6 20.9C107.87 20.56 107.05 20.4 106.12 20.42C105.2 20.43 104.33 20.5 103.52 20.63C102.71 20.75 101.8 20.93 100.79 21.19ZM95.5 21.9C95.39 19.18 94.59 17.83 93.11 17.83V17.87C91.88 17.87 91.02 18.36 90.55 19.34C90.38 19.68 90.31 20.01 90.34 20.35C90.34 20.71 90.42 21.04 90.59 21.32C91.07 22.08 91.99 22.4 93.36 22.29C93.92 22.22 94.63 22.1 95.5 21.9ZM106.42 46.64H103.98V46.3C105.55 46.3 106.36 44.62 106.42 41.26V34.25C106.36 30.92 105.55 29.25 103.98 29.25V28.87H109.69C110.33 28.9 110.83 29.11 111.18 29.5C111.53 29.89 111.71 30.41 111.71 31.05V41.26C111.71 41.93 111.74 42.52 111.79 43.02C111.85 43.52 111.95 44.05 112.11 44.59C112.26 45.14 112.51 45.56 112.84 45.85C113.18 46.14 113.6 46.29 114.1 46.29V46.63H106.42V46.64Z" fill="white"/>
<path d="M130.41 41.6V34.38C130.41 32.95 129.75 31.99 128.44 31.5C127.12 31.01 125.81 31.14 124.51 31.9C123.21 32.66 122.56 33.82 122.56 35.39V40.22V41.4C122.59 44.79 123.39 46.48 124.95 46.48V46.82H114.83V46.48C116.4 46.48 117.21 44.81 117.27 41.48V34.42C117.21 31.06 116.4 29.38 114.83 29.38V29.04H120.54C121.13 29.07 121.58 29.18 121.88 29.38C122.19 29.58 122.36 29.86 122.4 30.24C122.44 30.62 122.43 30.99 122.38 31.35C122.32 31.71 122.24 32.15 122.13 32.65C122.02 33.15 121.95 33.53 121.92 33.78C121.95 33.72 121.99 33.63 122.05 33.51C122.11 33.39 122.13 33.29 122.13 33.24C122.16 33.18 122.26 32.97 122.42 32.61C122.45 32.61 122.47 32.58 122.48 32.53C122.49 32.47 122.51 32.45 122.54 32.45C123.24 31.19 124.18 30.24 125.35 29.59C126.53 28.95 127.79 28.64 129.13 28.67C131.45 28.7 133.13 29.17 134.15 30.08C135.17 30.99 135.68 32.58 135.68 34.85V40V39.96C135.68 40.04 135.68 40.16 135.68 40.32C135.68 40.47 135.68 40.59 135.68 40.68V41.14C135.68 41.84 135.71 42.45 135.76 42.97C135.82 43.49 135.91 44.04 136.05 44.63C136.19 45.22 136.44 45.67 136.79 46C137.14 46.32 137.58 46.48 138.11 46.48V46.82H127.94V46.48C129.54 46.47 130.35 44.85 130.41 41.6Z" fill="white"/>
<path d="M147.75 28.71C149.85 28.71 151.73 29.35 153.38 30.64C155.03 31.93 156.12 33.57 156.66 35.55L155.36 35.8L153.39 36.18L151.58 36.52L143.77 37.99C143.69 43.31 145.16 45.97 148.18 45.97C149.94 45.97 151.44 45.58 152.67 44.79C153.9 44.01 154.76 43.14 155.23 42.19C155.31 42.05 155.42 41.98 155.54 41.98C155.66 41.98 155.75 42.04 155.79 42.15C155.83 42.26 155.81 42.39 155.73 42.53C154.92 43.93 153.8 45.05 152.39 45.89C150.98 46.73 149.43 47.15 147.75 47.15C145.2 47.15 143.02 46.25 141.22 44.46C139.41 42.67 138.51 40.5 138.51 37.95C138.51 35.4 139.41 33.22 141.22 31.42C143.03 29.61 145.2 28.71 147.75 28.71ZM142.38 37.32L151.5 35.6C151.28 33.86 150.84 32.43 150.2 31.29C149.56 30.16 148.74 29.59 147.76 29.59C146.7 29.59 145.83 30.17 145.18 31.33C144.52 32.49 144.09 33.97 143.9 35.76C143.84 36.1 143.68 36.4 143.4 36.68C143.1 36.97 142.77 37.18 142.38 37.32Z" fill="white"/>
<path d="M162.84 48.8403C164.79 48.8403 166.37 47.2598 166.37 45.3103C166.37 43.3607 164.79 41.7803 162.84 41.7803C160.89 41.7803 159.31 43.3607 159.31 45.3103C159.31 47.2598 160.89 48.8403 162.84 48.8403Z" fill="#E7411B"/>
<path d="M175.74 50.32H175.61C175.39 50.32 175.18 50.26 174.98 50.13C174.78 50 174.64 49.81 174.56 49.56C174.19 48.35 173.93 47.03 173.79 45.58C173.58 43.79 173.48 41.8 173.48 39.61C173.48 35.04 173.84 30.52 174.55 26.04C174.75 24.74 175.01 23.43 175.35 22.11C175.64 21 175.91 20.19 176.15 19.7C176.3 19.35 176.47 19.02 176.65 18.69C177.27 17.76 177.94 17.29 178.67 17.29C178.78 17.29 178.99 17.32 179.28 17.39C179.57 17.46 179.87 17.69 180.16 18.1C180.37 18.42 180.47 18.75 180.47 19.1C180.47 19.21 180.44 19.42 180.38 19.71C180.32 20 180.08 20.3 179.66 20.6C179.69 20.59 179.71 20.58 179.72 20.57C179.73 20.56 179.76 20.54 179.8 20.5L179.74 20.58L179.68 20.71C179.62 20.81 179.57 20.91 179.53 21.01C179.49 21.11 179.44 21.23 179.4 21.37C178.96 22.64 178.55 24.4 178.18 26.64C177.55 30.47 177.12 34.22 176.88 37.9C176.66 40.91 176.54 43.44 176.54 45.48C177.61 42.29 178.7 39.45 179.79 36.94C180.81 34.58 181.81 32.62 182.8 31.08C182.83 31.05 182.85 31.02 182.87 30.98C183 30.78 183.15 30.58 183.32 30.38C183.81 29.74 184.4 29.36 185.11 29.23L185.32 29.22C185.73 29.22 186.11 29.35 186.46 29.6C186.81 29.88 187.08 30.19 187.26 30.53C187.63 31.27 187.82 32.08 187.82 32.97C187.82 33.15 187.81 33.33 187.79 33.52C187.65 34.85 187.2 36.02 186.44 37.04C185.26 38.67 183.66 39.91 181.63 40.78L181.7 40.86C182.04 41.21 182.42 41.51 182.85 41.79C184.2 42.63 185.65 43.05 187.21 43.05C188.64 43.05 190.08 42.68 191.53 41.93C192.46 41.47 193.28 40.85 193.98 40.05C194.16 39.86 194.37 39.77 194.62 39.77C194.82 39.77 194.99 39.84 195.15 39.97C195.35 40.15 195.44 40.36 195.44 40.61C195.44 40.94 195.3 41.18 195.01 41.34C194.63 41.55 194.26 41.75 193.9 41.96C193.28 42.32 192.66 42.65 192.04 42.97C190.39 43.79 188.69 44.2 186.95 44.2C184.69 44.2 182.58 43.5 180.63 42.11C180.21 41.82 179.84 41.49 179.54 41.12C179.54 41.11 179.51 41.07 179.46 40.99C178.73 42.94 177.95 45.28 177.11 48.01L176.76 49.19L176.68 49.44C176.57 49.93 176.25 50.23 175.74 50.32ZM180.15 39.22C182.64 37.59 184.35 35.52 185.29 33.04C185.48 32.55 185.57 32.1 185.57 31.67C185.57 31.31 185.51 31.05 185.4 30.9L185.39 30.87C185.35 30.8 185.3 30.77 185.22 30.77C184.9 30.77 184.47 31.14 183.92 31.89C183.3 32.72 182.75 33.6 182.25 34.54C181.55 35.89 180.85 37.45 180.15 39.22Z" fill="white"/>
<path d="M196.31 49.2299H196.25C195.87 49.2299 195.59 49.0599 195.41 48.7299C194.94 47.6399 194.64 46.5599 194.51 45.5099C194.22 43.4499 194.08 41.1799 194.08 38.6999C194.08 37.5999 194.12 36.6799 194.21 35.9499C194.28 35.3799 194.53 34.9299 194.94 34.5999C195.31 34.2999 195.74 34.1499 196.22 34.1499C196.85 34.1499 197.36 34.3999 197.76 34.9099C198.05 35.2599 198.19 35.6899 198.19 36.1699C198.19 36.3199 198.17 36.4599 198.13 36.5999C198.05 36.9699 197.89 37.9199 197.65 39.4299C197.21 42.4999 196.99 45.0999 196.99 47.2199C196.99 47.5599 197.01 47.8899 197.06 48.2099V48.3399C197.06 48.5499 196.99 48.7299 196.86 48.9099C196.74 49.0799 196.55 49.1899 196.31 49.2299ZM196.42 31.8899H196.39C195.79 31.7999 195.34 31.4199 195.03 30.7699C194.81 30.3199 194.71 29.8899 194.71 29.4799C194.71 29.2899 194.73 29.1099 194.78 28.9199C195.02 28.2299 195.46 27.8799 196.08 27.8799C196.42 27.8799 196.76 27.9799 197.12 28.1899C197.47 28.3999 197.68 28.6499 197.74 28.9599L197.75 29.2699C197.75 29.5599 197.71 29.8999 197.62 30.2999C197.54 30.6999 197.39 31.0599 197.19 31.3899C196.99 31.7199 196.73 31.8899 196.42 31.8899Z" fill="white"/>
<path d="M217.21 54.23C217.06 54.23 216.94 54.19 216.85 54.12C215.92 53.23 215.24 51.47 214.83 48.82C214.45 46.37 214.26 43.48 214.26 40.14C214.26 36.33 214.5 32.76 214.99 29.44C214.43 30.93 213.93 32.44 213.49 33.97C212.71 36.63 212.25 38.31 212.1 39.02L212.04 39.17C211.61 40.82 211.09 42.48 210.48 44.13C209.48 46.88 208.12 48.25 206.39 48.25C206.21 48.25 206.05 48.24 205.9 48.22H205.82C204.78 48.05 203.91 47.5 203.2 46.56C202.49 45.62 202.03 44.63 201.83 43.58C201.67 42.79 201.59 42 201.59 41.21C201.59 40.1 201.78 38.87 202.15 37.52C202.34 36.9 202.5 36.42 202.65 36.08C203.07 35.01 203.66 34.09 204.42 33.32C205.46 32.26 206.64 31.7 207.97 31.64C208.77 31.64 209.48 31.85 210.09 32.26C210.95 32.89 211.38 33.69 211.38 34.67C211.38 35.05 211.29 35.41 211.11 35.75C211.01 35.95 210.84 36.04 210.62 36.04C210.34 36.04 210.16 35.89 210.09 35.59C209.88 34.94 209.52 34.61 209.01 34.61C208.8 34.61 208.62 34.69 208.45 34.86C208.1 35.13 207.7 35.78 207.23 36.81L207.14 37C206.97 37.34 206.79 37.77 206.59 38.3C206.48 38.6 206.34 39.01 206.18 39.53L206.05 39.95L205.76 41.03C205.52 42.03 205.4 42.98 205.4 43.87C205.4 44.92 205.54 45.66 205.83 46.1C205.92 46.25 206.03 46.34 206.14 46.38L206.25 46.44C206.42 46.5 206.59 46.54 206.75 46.54C207.21 46.54 207.65 46.29 208.08 45.78C208.98 44.68 209.88 42.35 210.8 38.79L210.84 38.68L211.54 36.12C212.11 33.99 212.9 31.21 213.89 27.78C214.1 27.15 214.29 26.52 214.48 25.89C214.72 25.02 214.98 24.16 215.26 23.3C215.67 21.98 216.04 21.02 216.38 20.4L216.41 20.36C216.52 20.12 216.64 19.93 216.77 19.8C216.77 19.78 216.86 19.7 217.04 19.55C217.1 19.49 217.23 19.42 217.43 19.33C217.6 19.27 217.76 19.25 217.91 19.25C218.11 19.25 218.32 19.29 218.54 19.38C218.91 19.55 219.17 19.8 219.31 20.12L219.34 20.16C219.4 20.32 219.43 20.43 219.44 20.5L219.47 20.7L219.48 21.06C219.48 21.3 219.42 21.79 219.31 22.52C219.24 22.76 218.91 24.81 218.32 28.67C217.76 32.39 217.38 35.59 217.17 38.26C216.87 41.97 216.72 45.01 216.72 47.37C216.72 50.57 217 52.58 217.55 53.4C217.64 53.49 217.69 53.61 217.69 53.75C217.69 53.91 217.62 54.05 217.48 54.17C217.4 54.2 217.31 54.23 217.21 54.23Z" fill="white"/>
<path d="M224.77 55.73C223.7 55.73 222.76 55.36 221.97 54.61C221.21 53.83 220.83 52.75 220.83 51.34C220.83 49.98 221.17 48.59 221.84 47.15C222.86 45.05 224.33 43.34 226.26 42.02C225.99 42.01 225.71 42 225.41 42C225.12 42 224.8 41.98 224.48 41.97C221.65 41.97 219.79 41.12 218.9 39.43C218.58 38.79 218.42 38.1 218.42 37.36C218.42 36.83 218.49 36.34 218.62 35.89C218.92 34.88 219.33 34 219.85 33.24C220.9 31.72 222.18 30.47 223.69 29.5C224.45 29.01 225.28 28.62 226.2 28.31C226.84 28.1 227.47 28 228.06 28C229.27 28 230.22 28.41 230.91 29.23C231.28 29.72 231.52 30.21 231.62 30.72C231.72 31.23 231.77 31.72 231.77 32.2C231.77 33.14 231.63 33.71 231.34 33.91C231.22 34 231.08 34.05 230.93 34.05L230.79 34.04C230.44 33.96 230.24 33.74 230.17 33.4C230.08 32.62 229.9 31.96 229.64 31.39C229.5 31.13 229.35 30.94 229.2 30.84C229.05 30.73 228.84 30.68 228.59 30.68C228.21 30.68 227.75 30.81 227.22 31.06C226.64 31.33 226.08 31.69 225.54 32.13C224.43 33.02 223.49 34.03 222.72 35.16C222.12 36.06 221.82 36.83 221.82 37.49C221.82 37.8 221.93 38.03 222.16 38.19C222.56 38.5 223.42 38.73 224.74 38.89C224.76 38.9 224.78 38.9 224.81 38.9C225.55 38.99 226.33 39.11 227.15 39.25C228 39.37 228.89 39.6 229.81 39.94C229.97 40 230.13 40.06 230.29 40.14C232.08 39.6 233.92 39.33 235.8 39.33C236.63 39.33 237.62 39.37 238.77 39.46H238.78C239 39.49 239.18 39.58 239.32 39.74C239.46 39.9 239.52 40.08 239.52 40.29C239.52 40.51 239.43 40.71 239.24 40.88C239.08 41.01 238.9 41.08 238.69 41.08C238.58 41.08 238.48 41.06 238.4 41.01C237.71 40.73 236.97 40.58 236.2 40.55C235.9 40.53 235.61 40.52 235.32 40.52C234.09 40.52 232.84 40.67 231.58 40.98C231.86 41.21 232.11 41.48 232.32 41.79C232.94 42.71 233.3 43.64 233.4 44.61C233.45 45.01 233.47 45.4 233.47 45.79C233.47 47.25 233.16 48.62 232.54 49.91C231.77 51.54 230.7 52.89 229.33 53.96C227.84 55.13 226.32 55.73 224.77 55.73ZM224.86 54.48C225.45 54.48 226.03 54.34 226.61 54.06C227.26 53.75 227.85 53.34 228.36 52.81C229.41 51.73 230.14 50.5 230.56 49.1C230.78 48.32 230.9 47.56 230.9 46.82C230.9 46.22 230.83 45.63 230.69 45.05C230.53 44.41 230.3 43.88 230.01 43.48C229.72 43.08 229.3 42.75 228.76 42.49C228.56 42.4 228.35 42.32 228.13 42.27C225.8 43.5 224.08 45.31 222.96 47.68C222.37 48.94 222.08 50.16 222.08 51.34C222.08 52.38 222.34 53.18 222.86 53.74C223.38 54.23 224.05 54.48 224.86 54.48Z" fill="white"/>
</svg>
