<svg width="252" height="72" viewBox="0 0 252 72" fill="none" xmlns="http://www.w3.org/2000/svg">
<g clip-path="url(#clip0_107_2)">
<path d="M25.7742 19.4521V38.184C25.7742 38.982 25.6062 39.7521 25.2772 40.4941L25.7742 39.7101L30.7652 31.2121C31.8362 29.4271 33.0052 28.489 34.2722 28.405C35.1542 28.349 35.7002 28.7341 35.9242 29.5601C36.2532 30.7991 35.5532 32.227 33.8172 33.851C33.7892 33.907 33.7472 33.9631 33.6912 34.0191C32.9212 34.7051 32.0672 35.4611 31.1362 36.2871L35.9242 43.0141C37.3802 44.9391 38.6332 45.905 39.6762 45.905V46.234H30.6462V45.905C31.3882 45.905 31.7942 45.7091 31.8642 45.3241C31.9342 44.9391 31.7592 44.456 31.3462 43.882L28.7002 40.088C27.9862 38.989 28.3012 37.904 29.6522 36.826C30.4502 36.196 31.2902 35.4471 32.1722 34.6001C33.3832 33.4731 33.8102 32.4511 33.4532 31.5481C33.2082 30.9461 32.7672 30.736 32.1302 30.932C31.6332 31.072 31.2062 31.4711 30.8492 32.1291L25.7742 40.8791V41.1661C25.7742 41.7961 25.8022 42.3491 25.8582 42.8181C25.9142 43.2871 26.0192 43.7841 26.1662 44.3021C26.3202 44.8271 26.5582 45.2261 26.8872 45.4991C27.2162 45.7721 27.6292 45.9121 28.1262 45.9121V46.2411H18.1792V45.9121C19.6912 45.9121 20.4892 44.3161 20.5732 41.1241V22.63C20.5172 19.326 19.7192 17.6811 18.1792 17.6811V17.3521H23.7932C24.4232 17.3521 24.9132 17.5551 25.2562 17.9471C25.5992 18.3461 25.7742 18.8501 25.7742 19.4521Z" fill="black"/>
<path d="M41.307 31.1141C43.078 29.3431 45.22 28.4541 47.726 28.4541C50.232 28.4541 52.36 29.3431 54.124 31.1141C55.881 32.8921 56.763 35.0271 56.763 37.5331C56.763 40.0391 55.881 42.1671 54.124 43.9311C52.36 45.6951 50.232 46.5701 47.726 46.5701C45.22 46.5701 43.085 45.6881 41.307 43.9311C39.529 42.1741 38.647 40.0391 38.647 37.5331C38.647 35.0271 39.536 32.8851 41.307 31.1141ZM47.726 29.3151C46.739 29.3151 45.899 29.8821 45.206 31.0091C44.52 32.1361 44.1 33.5081 43.946 35.1181C43.792 36.7281 43.792 38.3311 43.946 39.9271C44.1 41.5231 44.52 42.8881 45.206 44.0151C45.892 45.1421 46.732 45.7091 47.726 45.7091C48.524 45.7091 49.224 45.3031 49.833 44.4911C50.435 43.6791 50.869 42.6711 51.135 41.4601C51.394 40.2491 51.527 38.9331 51.527 37.5191C51.527 36.1051 51.394 34.7891 51.135 33.5781C50.876 32.3671 50.442 31.3591 49.833 30.5471C49.224 29.7211 48.524 29.3151 47.726 29.3151Z" fill="black"/>
<path d="M72.24 40.956C72.184 41.509 71.995 42.153 71.666 42.895V42.811C71.253 43.938 70.665 44.855 69.909 45.555C69.153 46.255 68.236 46.605 67.165 46.605C65.653 46.605 64.295 46.29 63.098 45.653C61.901 45.023 60.963 44.204 60.291 43.196C59.619 42.195 59.129 41.075 58.828 39.85C58.527 38.625 58.429 37.379 58.541 36.119C58.786 33.949 59.605 32.122 60.998 30.652C62.384 29.182 64.225 28.447 66.507 28.447C68.873 28.447 70.595 29.686 71.666 32.164V26.263C71.61 22.987 70.826 21.349 69.314 21.349V21.02H74.928C75.558 21.02 76.041 21.223 76.37 21.615C76.699 22.014 76.867 22.518 76.867 23.12V40.949C76.923 44.253 77.721 45.898 79.261 45.898V46.227H73.647C72.849 46.227 72.31 46.017 72.037 45.59C71.764 45.163 71.68 44.687 71.792 44.169C71.904 43.644 72.023 43.056 72.163 42.398C72.296 41.74 72.324 41.257 72.24 40.956ZM71.659 37.981V36.784C71.575 34.887 71.162 33.193 70.42 31.709C69.678 30.225 68.852 29.483 67.942 29.483C66.591 29.483 65.541 30.204 64.785 31.653C64.029 33.095 63.623 34.852 63.567 36.917C63.511 39.038 63.812 40.921 64.477 42.573C65.135 44.225 66.031 45.051 67.158 45.051C67.984 45.051 68.698 44.834 69.307 44.393C69.909 43.952 70.371 43.357 70.693 42.601C71.008 41.845 71.246 41.096 71.393 40.354C71.547 39.591 71.631 38.807 71.659 37.981Z" fill="black"/>
<path d="M88.7462 28.447C90.8112 28.447 92.6521 29.077 94.2761 30.344C95.9001 31.611 96.9712 33.221 97.4962 35.174L96.2152 35.419L94.2761 35.79L92.4982 36.119L84.8192 37.561C84.7352 42.79 86.1842 45.401 89.1522 45.401C90.8882 45.401 92.3582 45.016 93.5692 44.246C94.7802 43.476 95.6202 42.622 96.0892 41.684C96.1732 41.544 96.2782 41.481 96.3972 41.481C96.5232 41.481 96.6002 41.537 96.6422 41.649C96.6842 41.761 96.6632 41.88 96.5792 42.02C95.7812 43.399 94.6892 44.498 93.2962 45.324C91.9102 46.15 90.3842 46.563 88.7392 46.563C86.2332 46.563 84.0982 45.681 82.3202 43.924C80.5422 42.167 79.6602 40.032 79.6602 37.526C79.6602 35.02 80.5492 32.885 82.3202 31.107C84.1052 29.336 86.2402 28.447 88.7462 28.447ZM83.4612 36.91L92.4142 35.216C92.1902 33.508 91.7702 32.101 91.1332 30.988C90.5032 29.875 89.7052 29.315 88.7392 29.315C87.6962 29.315 86.8492 29.889 86.1982 31.03C85.5542 32.171 85.1342 33.62 84.9382 35.384C84.8822 35.713 84.7142 36.014 84.4412 36.294C84.1822 36.567 83.8462 36.77 83.4612 36.91Z" fill="black"/>
<path d="M104.755 21.0621V40.7881C104.783 41.4461 104.825 42.0271 104.881 42.5241C104.937 43.0211 105.042 43.5321 105.189 44.0711C105.343 44.6101 105.581 45.0231 105.91 45.3101C106.239 45.5971 106.652 45.7441 107.149 45.7441V46.0731H97.202V45.7441C98.742 45.7441 99.526 44.0921 99.554 40.7951V24.4921C99.554 23.2811 100.254 22.4131 101.661 21.8951C101.08 22.0631 100.52 22.1961 99.967 22.3081L99.554 22.4341C98.756 22.6021 98.07 22.7071 97.489 22.7631C95.921 22.9031 94.836 22.4761 94.227 21.4821C93.982 21.1251 93.856 20.7261 93.856 20.2851C93.856 19.8441 93.954 19.4171 94.143 19.0041C94.388 18.4511 94.78 18.0171 95.319 17.6811C95.858 17.3521 96.481 17.1841 97.195 17.1841H102.809C103.439 17.1841 103.922 17.3801 104.251 17.7791C104.58 18.1781 104.748 18.6821 104.748 19.2841V20.4391C105.819 20.1661 106.785 19.9631 107.639 19.8441C108.493 19.7181 109.396 19.6761 110.362 19.6971C111.328 19.7251 112.182 19.9211 112.938 20.2921C113.694 20.6631 114.296 21.2231 114.73 21.9651C115.227 22.7631 115.472 23.6031 115.472 24.4851C115.472 25.1991 115.22 25.8151 114.709 26.3191C114.198 26.8301 113.582 27.0821 112.854 27.0821C112.126 27.0821 111.503 26.8301 110.999 26.3191C110.488 25.8081 110.236 25.1991 110.236 24.4851C110.236 23.7711 110.488 23.1551 110.999 22.6511C111.51 22.1401 112.133 21.8881 112.875 21.8881C113.344 21.8881 113.771 22.0001 114.156 22.2171C113.715 21.5871 113.141 21.1041 112.42 20.7751C111.706 20.4461 110.894 20.2851 109.984 20.2991C109.074 20.3131 108.22 20.3831 107.422 20.5021C106.645 20.6281 105.749 20.8171 104.755 21.0621ZM99.561 21.7621C99.449 19.0951 98.665 17.7581 97.209 17.7581V17.8001C95.998 17.8001 95.158 18.2831 94.689 19.2421C94.521 19.5711 94.458 19.9001 94.486 20.2291C94.486 20.5861 94.57 20.9011 94.731 21.1811C95.2 21.9231 96.11 22.2381 97.454 22.1331C98 22.0841 98.707 21.9581 99.561 21.7621ZM110.285 46.0731H107.891V45.7441C109.431 45.7441 110.229 44.0921 110.285 40.7951V33.9001C110.229 30.6241 109.431 28.9861 107.891 28.9861V28.6151H113.505C114.135 28.6431 114.625 28.8461 114.968 29.2311C115.311 29.6161 115.486 30.1271 115.486 30.7571V40.7881C115.486 41.4461 115.514 42.0271 115.57 42.5241C115.626 43.0211 115.731 43.5321 115.878 44.0711C116.025 44.6101 116.27 45.0231 116.599 45.3101C116.928 45.5971 117.341 45.7441 117.838 45.7441V46.0731H110.285Z" fill="black"/>
<path d="M133.854 41.1171V34.0191C133.854 32.6121 133.21 31.6741 131.915 31.1911C130.62 30.7081 129.339 30.8411 128.058 31.5831C126.777 32.3251 126.14 33.4661 126.14 35.0061V39.7521V40.9071C126.168 44.2391 126.952 45.8981 128.492 45.8981V46.2271H118.545V45.8981C120.085 45.8981 120.883 44.2601 120.939 40.9841V34.0541C120.883 30.7501 120.085 29.1051 118.545 29.1051V28.7761H124.159C124.74 28.8041 125.174 28.9161 125.482 29.1051C125.783 29.3011 125.958 29.5811 126 29.9521C126.042 30.3231 126.035 30.6871 125.979 31.0441C125.923 31.4011 125.839 31.8281 125.734 32.3251C125.629 32.8221 125.552 33.1931 125.531 33.4381C125.559 33.3821 125.601 33.2911 125.657 33.1721C125.713 33.0461 125.741 32.9621 125.741 32.9061C125.769 32.8501 125.867 32.6471 126.028 32.2901C126.056 32.2901 126.077 32.2621 126.091 32.2061C126.105 32.1501 126.126 32.1221 126.154 32.1221C126.84 30.8831 127.764 29.9451 128.919 29.3151C130.074 28.6851 131.313 28.3771 132.636 28.4051C134.918 28.4331 136.563 28.8951 137.571 29.7911C138.572 30.6871 139.076 32.2481 139.076 34.4741V39.5491V39.5071C139.076 39.5911 139.076 39.7031 139.076 39.8571C139.076 40.0111 139.076 40.1231 139.076 40.2071V40.6621C139.076 41.3481 139.104 41.9501 139.16 42.4541C139.216 42.9651 139.307 43.5041 139.447 44.0851C139.587 44.6661 139.825 45.1071 140.168 45.4291C140.511 45.7441 140.945 45.9051 141.47 45.9051V46.2341H131.46V45.9051C133 45.9051 133.798 44.3091 133.854 41.1171Z" fill="black"/>
<path d="M150.892 28.447C152.957 28.447 154.798 29.077 156.422 30.344C158.046 31.611 159.117 33.221 159.642 35.174L158.361 35.419L156.422 35.79L154.644 36.119L146.965 37.561C146.881 42.79 148.33 45.401 151.298 45.401C153.034 45.401 154.504 45.016 155.715 44.246C156.926 43.476 157.766 42.622 158.235 41.684C158.319 41.544 158.424 41.481 158.543 41.481C158.669 41.481 158.746 41.537 158.788 41.649C158.83 41.761 158.809 41.88 158.725 42.02C157.927 43.399 156.835 44.498 155.442 45.324C154.056 46.15 152.53 46.563 150.885 46.563C148.379 46.563 146.244 45.681 144.466 43.924C142.688 42.167 141.806 40.032 141.806 37.526C141.806 35.02 142.695 32.885 144.466 31.107C146.251 29.336 148.393 28.447 150.892 28.447ZM145.614 36.91L154.567 35.216C154.343 33.508 153.923 32.101 153.286 30.988C152.656 29.875 151.858 29.315 150.892 29.315C149.849 29.315 149.002 29.889 148.351 31.03C147.707 32.171 147.287 33.62 147.091 35.384C147.035 35.713 146.867 36.014 146.594 36.294C146.328 36.567 145.999 36.77 145.614 36.91Z" fill="black"/>
<path d="M163.702 48.2289C165.62 48.2289 167.174 46.6744 167.174 44.7569C167.174 42.8394 165.62 41.2849 163.702 41.2849C161.784 41.2849 160.23 42.8394 160.23 44.7569C160.23 46.6744 161.784 48.2289 163.702 48.2289Z" fill="#E7411B"/>
<path d="M171.199 49.6849H171.073C170.849 49.6849 170.646 49.6219 170.45 49.4959C170.254 49.3699 170.121 49.1879 170.037 48.9359C169.666 47.7529 169.414 46.4509 169.281 45.0229C169.078 43.2589 168.98 41.3059 168.98 39.1569C168.98 34.6699 169.33 30.2249 170.03 25.8289C170.219 24.5549 170.485 23.2669 170.814 21.9719C171.101 20.8799 171.36 20.0889 171.598 19.6059C171.745 19.2699 171.913 18.9339 172.095 18.6119C172.704 17.6949 173.362 17.2329 174.076 17.2329C174.188 17.2329 174.384 17.2679 174.678 17.3309C174.965 17.3939 175.252 17.6319 175.539 18.0309C175.742 18.3459 175.84 18.6679 175.84 19.0109C175.84 19.1229 175.812 19.3189 175.749 19.6129C175.686 19.8999 175.455 20.1939 175.042 20.4879C175.07 20.4809 175.091 20.4669 175.105 20.4599C175.119 20.4529 175.147 20.4249 175.182 20.3899L175.126 20.4739L175.07 20.5999C175.014 20.6979 174.965 20.8029 174.923 20.8939C174.881 20.9919 174.839 21.1039 174.79 21.2439C174.356 22.4899 173.957 24.2189 173.593 26.4239C172.977 30.1899 172.55 33.8719 172.312 37.4839C172.088 40.4379 171.983 42.9229 171.983 44.9319C173.04 41.8029 174.104 39.0029 175.175 36.5459C176.176 34.2219 177.163 32.3039 178.136 30.7919C178.164 30.7639 178.185 30.7289 178.206 30.6939C178.332 30.4979 178.479 30.3019 178.647 30.0989C179.123 29.4759 179.711 29.0979 180.411 28.9719L180.614 28.9579C181.02 28.9579 181.391 29.0839 181.727 29.3289C182.077 29.6019 182.336 29.9099 182.511 30.2389C182.875 30.9669 183.064 31.7649 183.064 32.6329C183.064 32.8079 183.057 32.9829 183.036 33.1719C182.896 34.4739 182.455 35.6289 181.713 36.6299C180.558 38.2259 178.983 39.4509 176.988 40.3049L177.058 40.3889C177.387 40.7249 177.765 41.0329 178.185 41.2989C179.508 42.1249 180.936 42.5379 182.469 42.5379C183.876 42.5379 185.29 42.1739 186.711 41.4389C187.628 40.9909 188.433 40.3749 189.119 39.5909C189.294 39.4089 189.504 39.3179 189.749 39.3179C189.945 39.3179 190.113 39.3809 190.274 39.5139C190.463 39.6889 190.561 39.8989 190.561 40.1439C190.561 40.4659 190.421 40.7039 190.134 40.8579C189.756 41.0609 189.392 41.2639 189.049 41.4669C188.44 41.8169 187.831 42.1459 187.215 42.4609C185.591 43.2659 183.925 43.6719 182.217 43.6719C179.998 43.6719 177.926 42.9859 176.008 41.6209C175.595 41.3339 175.238 41.0119 174.93 40.6409C174.93 40.6339 174.902 40.5919 174.846 40.5149C174.132 42.4329 173.362 44.7359 172.536 47.4169L172.193 48.5719L172.109 48.8169C172.011 49.3069 171.703 49.5939 171.199 49.6849ZM175.532 38.7789C177.975 37.1759 179.655 35.1459 180.586 32.7029C180.768 32.2269 180.859 31.7789 180.859 31.3519C180.859 30.9949 180.803 30.7429 180.691 30.5959L180.677 30.5679C180.642 30.5049 180.586 30.4699 180.509 30.4699C180.194 30.4699 179.767 30.8409 179.228 31.5689C178.619 32.3879 178.073 33.2559 177.59 34.1729C176.904 35.5099 176.211 37.0429 175.532 38.7789Z" fill="black"/>
<path d="M191.408 48.607H191.352C190.974 48.607 190.701 48.439 190.526 48.11C190.064 47.032 189.77 45.982 189.644 44.946C189.357 42.93 189.217 40.697 189.217 38.254C189.217 37.169 189.259 36.273 189.343 35.552C189.413 34.992 189.658 34.551 190.057 34.229C190.421 33.935 190.841 33.788 191.31 33.788C191.926 33.788 192.43 34.033 192.822 34.53C193.109 34.88 193.249 35.293 193.249 35.769C193.249 35.916 193.228 36.056 193.193 36.196C193.109 36.567 192.955 37.491 192.724 38.975C192.29 41.999 192.08 44.547 192.08 46.633C192.08 46.962 192.101 47.291 192.15 47.613V47.739C192.15 47.942 192.087 48.124 191.954 48.299C191.828 48.467 191.646 48.572 191.408 48.607ZM191.513 31.576H191.485C190.897 31.485 190.449 31.114 190.148 30.477C189.938 30.036 189.833 29.616 189.833 29.21C189.833 29.028 189.854 28.846 189.903 28.657C190.141 27.978 190.568 27.635 191.184 27.635C191.513 27.635 191.856 27.74 192.206 27.936C192.556 28.139 192.759 28.391 192.815 28.692L192.829 28.993C192.829 29.28 192.787 29.616 192.703 30.008C192.619 30.4 192.479 30.757 192.276 31.086C192.073 31.415 191.821 31.576 191.513 31.576Z" fill="black"/>
<path d="M211.946 53.528C211.799 53.528 211.68 53.493 211.589 53.416C210.672 52.541 210.007 50.812 209.608 48.208C209.23 45.8 209.041 42.958 209.041 39.682C209.041 35.937 209.279 32.437 209.755 29.175C209.202 30.638 208.712 32.115 208.285 33.627C207.522 36.245 207.067 37.897 206.92 38.583L206.864 38.737C206.444 40.361 205.933 41.985 205.338 43.609C204.358 46.311 203.014 47.655 201.32 47.655C201.145 47.655 200.984 47.648 200.837 47.627H200.753C199.731 47.459 198.877 46.92 198.177 45.996C197.477 45.072 197.029 44.099 196.826 43.07C196.672 42.293 196.595 41.516 196.595 40.746C196.595 39.654 196.777 38.443 197.148 37.127C197.33 36.518 197.498 36.049 197.645 35.706C198.058 34.656 198.639 33.753 199.381 32.99C200.403 31.954 201.558 31.401 202.867 31.338C203.658 31.338 204.351 31.541 204.946 31.947C205.793 32.563 206.213 33.354 206.213 34.313C206.213 34.691 206.129 35.041 205.954 35.37C205.856 35.559 205.695 35.657 205.471 35.657C205.198 35.657 205.023 35.51 204.946 35.216C204.736 34.572 204.379 34.25 203.889 34.25C203.686 34.25 203.504 34.334 203.336 34.495C202.993 34.761 202.594 35.398 202.139 36.406L202.055 36.588C201.887 36.917 201.712 37.344 201.516 37.869C201.404 38.163 201.271 38.569 201.117 39.08L200.991 39.493L200.704 40.55C200.466 41.53 200.347 42.461 200.347 43.343C200.347 44.372 200.487 45.1 200.774 45.534C200.865 45.681 200.97 45.772 201.075 45.807L201.187 45.863C201.355 45.926 201.516 45.961 201.684 45.961C202.132 45.961 202.573 45.716 202.993 45.219C203.875 44.134 204.764 41.845 205.667 38.345L205.709 38.233L206.395 35.713C206.955 33.62 207.725 30.89 208.705 27.516C208.908 26.9 209.097 26.284 209.286 25.654C209.524 24.8 209.783 23.953 210.056 23.106C210.462 21.811 210.826 20.859 211.155 20.257L211.183 20.215C211.295 19.977 211.414 19.795 211.54 19.662C211.54 19.641 211.624 19.564 211.799 19.417C211.855 19.361 211.981 19.291 212.184 19.2C212.352 19.144 212.506 19.116 212.653 19.116C212.849 19.116 213.052 19.158 213.276 19.242C213.64 19.41 213.899 19.648 214.032 19.97L214.06 20.012C214.116 20.166 214.144 20.278 214.158 20.341L214.186 20.53L214.2 20.887C214.2 21.125 214.144 21.601 214.032 22.322C213.969 22.56 213.64 24.576 213.052 28.37C212.499 32.024 212.121 35.167 211.925 37.792C211.631 41.439 211.484 44.421 211.484 46.745C211.484 49.895 211.757 51.869 212.296 52.667C212.387 52.758 212.436 52.877 212.436 53.01C212.436 53.164 212.366 53.304 212.233 53.423C212.128 53.5 212.037 53.528 211.946 53.528Z" fill="black"/>
<path d="M219.373 54.9979C218.316 54.9979 217.399 54.6269 216.622 53.8989C215.88 53.1359 215.509 52.0649 215.509 50.6929C215.509 49.3629 215.838 47.9909 216.503 46.5769C217.504 44.5119 218.953 42.8319 220.843 41.5369C220.577 41.5299 220.297 41.5229 220.01 41.5159C219.723 41.5089 219.415 41.5019 219.093 41.4809C216.314 41.4809 214.487 40.6479 213.612 38.9889C213.297 38.3659 213.143 37.6869 213.143 36.9519C213.143 36.4269 213.206 35.9439 213.339 35.5029C213.633 34.5089 214.039 33.6409 214.55 32.8989C215.579 31.4009 216.839 30.1759 218.323 29.2239C219.065 28.7479 219.891 28.3559 220.787 28.0549C221.417 27.8519 222.033 27.7539 222.621 27.7539C223.811 27.7539 224.749 28.1599 225.414 28.9649C225.778 29.4409 226.016 29.9309 226.114 30.4349C226.212 30.9319 226.268 31.4219 226.268 31.8909C226.268 32.8149 226.128 33.3749 225.841 33.5709C225.722 33.6619 225.589 33.7109 225.442 33.7109L225.302 33.6969C224.959 33.6129 224.763 33.4029 224.693 33.0669C224.602 32.3039 224.427 31.6459 224.168 31.0999C224.028 30.8409 223.888 30.6589 223.734 30.5539C223.58 30.4489 223.384 30.3929 223.132 30.3929C222.754 30.3929 222.306 30.5189 221.781 30.7639C221.214 31.0299 220.661 31.3799 220.129 31.8139C219.037 32.6889 218.113 33.6759 217.364 34.7889C216.776 35.6709 216.482 36.4339 216.482 37.0709C216.482 37.3719 216.594 37.6029 216.811 37.7569C217.203 38.0579 218.05 38.2889 219.345 38.4429C219.366 38.4499 219.387 38.4569 219.415 38.4569C220.143 38.5479 220.906 38.6669 221.718 38.7999C222.551 38.9189 223.426 39.1429 224.336 39.4719C224.49 39.5279 224.651 39.5909 224.805 39.6679C226.569 39.1359 228.375 38.8699 230.216 38.8699C231.035 38.8699 232.008 38.9119 233.135 38.9959H233.149C233.373 39.0239 233.548 39.1149 233.681 39.2689C233.814 39.4229 233.884 39.6049 233.884 39.8079C233.884 40.0249 233.793 40.2209 233.611 40.3889C233.457 40.5149 233.275 40.5849 233.072 40.5849C232.96 40.5849 232.862 40.5639 232.785 40.5149C232.106 40.2419 231.385 40.0879 230.622 40.0599C230.328 40.0389 230.041 40.0319 229.754 40.0319C228.543 40.0319 227.318 40.1859 226.079 40.4869C226.352 40.7179 226.597 40.9839 226.807 41.2849C227.416 42.1879 227.766 43.1049 227.864 44.0499C227.913 44.4419 227.934 44.8269 227.934 45.2049C227.934 46.6399 227.633 47.9839 227.024 49.2509C226.268 50.8469 225.218 52.1769 223.874 53.2339C222.383 54.4099 220.885 54.9979 219.373 54.9979ZM219.457 53.7729C220.038 53.7729 220.612 53.6329 221.179 53.3599C221.823 53.0589 222.397 52.6459 222.901 52.1349C223.93 51.0779 224.651 49.8599 225.064 48.4879C225.288 47.7249 225.393 46.9759 225.393 46.2409C225.393 45.6529 225.323 45.0719 225.183 44.5049C225.029 43.8749 224.805 43.3569 224.518 42.9649C224.231 42.5729 223.818 42.2439 223.286 41.9849C223.09 41.8939 222.887 41.8169 222.663 41.7609C220.374 42.9719 218.687 44.7429 217.581 47.0739C217 48.3129 216.713 49.5099 216.713 50.6719C216.713 51.6869 216.972 52.4779 217.483 53.0239C218.001 53.5279 218.659 53.7729 219.457 53.7729Z" fill="black"/>
</g>
<defs>
<clipPath id="clip0_107_2">
<rect width="252" height="72" fill="white"/>
</clipPath>
</defs>
</svg>
